<svg xmlns="http://www.w3.org/2000/svg" viewBox="0 0 64 64"><defs><style>.a{fill:#000842;}.b,.c{fill:#f6ae2d;stroke-linecap:round;stroke-linejoin:round;stroke-width:3px;}.b{stroke:#fff;}.c{stroke:#000842;}.d{fill:#f80;}</style></defs><rect class="a" width="64" height="64"/><rect class="b" x="10" y="10" width="36" height="23.59"/><line class="b" x1="17.32" y1="39" x2="38.68" y2="39"/><polygon class="c" points="32.84 21.8 28 24.62 23.16 27.44 23.16 21.8 23.16 16.15 28 18.97 32.84 21.8"/><path class="d" d="M59.51,34l-24,23.57a1.68,1.68,0,0,1-2.36,0L20.48,44.91a1.64,1.64,0,0,1,0-2.33l3.17-3.11a1.69,1.69,0,0,1,2.36,0l8.32,8.3L54,28.48a1.68,1.68,0,0,1,2.36,0l3.14,3.13A1.64,1.64,0,0,1,59.51,34Z"/></svg>